<svg xmlns="http://www.w3.org/2000/svg" viewBox="0 0 32 32" aria-hidden="true">
  <circle cx="16" cy="16" r="16" fill="#F7931A"/>
  <path fill="#fff" d="M22.5 14.2c.2-1.6-1-2.6-2.7-3.2l.6-2.2-1.4-.4-.6 2.1c-.4-.1-.7-.2-1.1-.3l.6-2.1-1.4-.4-.6 2.2c-.3-.1-.6-.1-.9-.2v-.1l-2-.5-.4 1.4s1.1.3 1.1.3c.6.2.7.4.7.6l-.7 2.6c0 .1-.1.1-.2.1h-.1l-1 3.7c-.1.2-.2.4-.6.3 0 0-1.1-.3-1.1-.3l-.7 1.6 1.9.5c.4.1.7.2 1 .3l-.6 2.3 1.4.4.6-2.2c.4.1.7.2 1.1.3l-.6 2.2 1.4.4.6-2.3c2.4.7 4 0 4.7-1.9.6-1.7 0-3-1.3-3.7.9-.2 1.6-.8 1.8-2.1zm-1.6 4.6c-.4 1.5-3.1.7-4 .5l.7-2.6c.8.2 3.7.9 3.3 2.1zm.4-4.3c-.4 1.4-2.8.7-3.6.5l.6-2.4c.7.2 3.4.8 3 1.9z"/>
</svg>
